<svg xmlns="http://www.w3.org/2000/svg" xmlns:xlink="http://www.w3.org/1999/xlink" viewBox="0 0 974.35546875 98.05078125"><path fill="white" stroke="white" d="M29.00 55.37L29.00 50.03L46.97 50.03L46.97 74.95Q42.93 76.32 38.65 76.99Q34.38 77.66 29.11 77.66L29.11 77.66Q21.09 77.66 15.59 74.46Q10.09 71.26 7.24 65.34Q4.39 59.41 4.39 51.26L4.39 51.26Q4.39 43.28 7.54 37.34Q10.69 31.39 16.65 28.11Q22.61 24.82 30.97 24.82L30.97 24.82Q35.26 24.82 39.11 25.61Q42.96 26.40 46.27 27.84L46.27 27.84L43.98 33.05Q41.13 31.82 37.71 30.94Q34.28 30.06 30.62 30.06L30.62 30.06Q24.33 30.06 19.85 32.66Q15.36 35.26 12.99 40.01Q10.62 44.75 10.62 51.26L10.62 51.26Q10.62 57.69 12.69 62.46Q14.77 67.22 19.16 69.86Q23.55 72.49 30.48 72.49L30.48 72.49Q33.96 72.49 36.46 72.09Q38.95 71.68 40.99 71.12L40.99 71.12L40.99 55.37L29.00 55.37ZM76.01 37.72L76.01 37.72Q77.17 37.72 78.43 37.85Q79.70 37.97 80.68 38.18L80.68 38.18L79.95 43.59Q79.00 43.35 77.84 43.21Q76.68 43.07 75.66 43.07L75.66 43.07Q73.34 43.07 71.28 44.00Q69.22 44.93 67.68 46.67Q66.13 48.41 65.25 50.85Q64.37 53.30 64.37 56.29L64.37 56.29L64.37 76.96L58.50 76.96L58.50 38.43L63.35 38.43L63.98 45.53L64.23 45.53Q65.43 43.38 67.11 41.61Q68.80 39.83 71.03 38.78Q73.27 37.72 76.01 37.72ZM102.34 37.79L102.34 37.79Q109.23 37.79 112.57 40.89Q115.91 43.98 115.91 50.77L115.91 50.77L115.91 76.96L111.66 76.96L110.53 71.26L110.25 71.26Q108.63 73.37 106.88 74.79Q105.12 76.22 102.81 76.94Q100.51 77.66 97.17 77.66L97.17 77.66Q93.66 77.66 90.93 76.43Q88.21 75.20 86.64 72.70Q85.08 70.21 85.08 66.38L85.08 66.38Q85.08 60.61 89.65 57.52Q94.22 54.42 103.57 54.14L103.57 54.14L110.21 53.86L110.21 51.50Q110.21 46.51 108.07 44.51Q105.93 42.50 102.02 42.50L102.02 42.50Q99 42.50 96.26 43.38Q93.52 44.26 91.05 45.46L91.05 45.46L89.26 41.03Q91.86 39.69 95.24 38.74Q98.61 37.79 102.34 37.79ZM110.14 61.52L110.14 57.97L104.27 58.22Q97.07 58.50 94.11 60.57Q91.16 62.65 91.16 66.45L91.16 66.45Q91.16 69.75 93.16 71.33Q95.17 72.91 98.47 72.91L98.47 72.91Q103.61 72.91 106.88 70.07Q110.14 67.22 110.14 61.52L110.14 61.52ZM143.37 77.66L143.37 77.66Q138.16 77.66 134.19 75.52Q130.22 73.37 128.00 68.98Q125.79 64.58 125.79 57.90L125.79 57.90Q125.79 50.91 128.13 46.46Q130.46 42.01 134.58 39.87Q138.69 37.72 143.93 37.72L143.93 37.72Q146.81 37.72 149.50 38.30Q152.19 38.88 153.91 39.76L153.91 39.76L152.16 44.65Q150.40 43.95 148.10 43.38Q145.79 42.82 143.79 42.82L143.79 42.82Q139.78 42.82 137.13 44.54Q134.47 46.27 133.15 49.61Q131.84 52.95 131.84 57.83L131.84 57.83Q131.84 62.51 133.12 65.81Q134.40 69.12 136.95 70.86Q139.50 72.60 143.33 72.60L143.33 72.60Q146.39 72.60 148.85 71.95Q151.31 71.30 153.32 70.42L153.32 70.42L153.32 75.62Q151.38 76.61 149.01 77.13Q146.64 77.66 143.37 77.66ZM177.26 37.72L177.26 37.72Q182.18 37.72 185.70 39.90Q189.21 42.08 191.07 46.00Q192.94 49.92 192.94 55.16L192.94 55.16L192.94 58.78L166.32 58.78Q166.43 65.57 169.70 69.12Q172.97 72.67 178.91 72.67L178.91 72.67Q182.57 72.67 185.38 72Q188.19 71.33 191.21 70.03L191.21 70.03L191.21 75.16Q188.30 76.46 185.43 77.06Q182.57 77.66 178.66 77.66L178.66 77.66Q173.11 77.66 168.98 75.39Q164.85 73.13 162.56 68.73Q160.28 64.34 160.28 57.97L160.28 57.97Q160.28 51.75 162.37 47.20Q164.46 42.64 168.28 40.18Q172.09 37.72 177.26 37.72ZM177.19 42.50L177.19 42.50Q172.51 42.50 169.73 45.56Q166.96 48.62 166.43 54.11L166.43 54.11L186.82 54.11Q186.79 50.66 185.75 48.04Q184.71 45.42 182.60 43.96Q180.49 42.50 177.19 42.50ZM222.43 25.56L235.86 25.56Q245.81 25.56 250.40 29.44Q254.99 33.33 254.99 40.57L254.99 40.57Q254.99 43.84 253.92 46.78Q252.84 49.71 250.45 51.94Q248.06 54.18 244.18 55.46Q240.29 56.74 234.67 56.74L234.67 56.74L228.41 56.74L228.41 76.96L222.43 76.96L222.43 25.56ZM235.30 30.66L235.30 30.66L228.41 30.66L228.41 51.61L234 51.61Q238.92 51.61 242.21 50.55Q245.50 49.50 247.15 47.13Q248.80 44.75 248.80 40.82L248.80 40.82Q248.80 35.68 245.53 33.17Q242.26 30.66 235.30 30.66ZM279.28 37.79L279.28 37.79Q286.17 37.79 289.51 40.89Q292.85 43.98 292.85 50.77L292.85 50.77L292.85 76.96L288.60 76.96L287.47 71.26L287.19 71.26Q285.57 73.37 283.82 74.79Q282.06 76.22 279.76 76.94Q277.45 77.66 274.11 77.66L274.11 77.66Q270.60 77.66 267.87 76.43Q265.15 75.20 263.58 72.70Q262.02 70.21 262.02 66.38L262.02 66.38Q262.02 60.61 266.59 57.52Q271.16 54.42 280.51 54.14L280.51 54.14L287.16 53.86L287.16 51.50Q287.16 46.51 285.01 44.51Q282.87 42.50 278.96 42.50L278.96 42.50Q275.94 42.50 273.20 43.38Q270.46 44.26 268.00 45.46L268.00 45.46L266.20 41.03Q268.80 39.69 272.18 38.74Q275.55 37.79 279.28 37.79ZM287.09 61.52L287.09 57.97L281.21 58.22Q274.01 58.50 271.05 60.57Q268.10 62.65 268.10 66.45L268.10 66.45Q268.10 69.75 270.11 71.33Q272.11 72.91 275.41 72.91L275.41 72.91Q280.55 72.91 283.82 70.07Q287.09 67.22 287.09 61.52L287.09 61.52ZM322.38 37.72L322.38 37.72Q323.54 37.72 324.81 37.85Q326.07 37.97 327.06 38.18L327.06 38.18L326.32 43.59Q325.37 43.35 324.21 43.21Q323.05 43.07 322.03 43.07L322.03 43.07Q319.71 43.07 317.65 44.00Q315.60 44.93 314.05 46.67Q312.50 48.41 311.63 50.85Q310.75 53.30 310.75 56.29L310.75 56.29L310.75 76.96L304.88 76.96L304.88 38.43L309.73 38.43L310.36 45.53L310.61 45.53Q311.80 43.38 313.49 41.61Q315.18 39.83 317.41 38.78Q319.64 37.72 322.38 37.72ZM334.30 22.25L340.10 22.25L340.10 50.66Q340.10 52.07 340.00 54.09Q339.89 56.11 339.82 57.66L339.82 57.66L340.07 57.66Q340.80 56.74 342.23 54.95Q343.65 53.16 344.64 52.07L344.64 52.07L357.43 38.43L364.29 38.43L348.79 54.88L365.41 76.96L358.38 76.96L344.78 58.71L340.10 63L340.10 76.96L334.30 76.96L334.30 22.25ZM420.33 71.68L420.33 76.96L391.71 76.96L391.71 25.56L420.33 25.56L420.33 30.83L397.69 30.83L397.69 47.46L419.03 47.46L419.03 52.66L397.69 52.66L397.69 71.68L420.33 71.68ZM444.55 77.66L444.55 77.66Q437.24 77.66 432.97 72.67Q428.70 67.68 428.70 57.83L428.70 57.83Q428.70 47.88 433.05 42.80Q437.41 37.72 444.66 37.72L444.66 37.72Q447.71 37.72 450 38.53Q452.29 39.34 453.94 40.69Q455.59 42.05 456.71 43.77L456.71 43.77L457.14 43.77Q457.00 42.68 456.86 40.78Q456.71 38.88 456.71 37.69L456.71 37.69L456.71 22.25L462.55 22.25L462.55 76.96L457.84 76.96L456.96 71.47L456.71 71.47Q455.63 73.20 453.96 74.60Q452.29 76.01 449.98 76.83Q447.68 77.66 444.55 77.66ZM445.46 72.81L445.46 72.81Q451.65 72.81 454.22 69.29Q456.79 65.78 456.79 58.85L456.79 58.85L456.79 57.80Q456.79 50.45 454.34 46.51Q451.90 42.57 445.46 42.57L445.46 42.57Q440.09 42.57 437.41 46.71Q434.74 50.84 434.74 57.97L434.74 57.97Q434.74 65.07 437.40 68.94Q440.05 72.81 445.46 72.81ZM500.84 38.43L506.71 38.43L506.71 76.96L501.93 76.96L501.08 71.54L500.77 71.54Q499.57 73.55 497.67 74.92Q495.77 76.29 493.40 76.97Q491.03 77.66 488.36 77.66L488.36 77.66Q483.79 77.66 480.69 76.18Q477.60 74.71 476.03 71.61Q474.47 68.52 474.47 63.67L474.47 63.67L474.47 38.43L480.38 38.43L480.38 63.25Q480.38 68.06 482.55 70.44Q484.73 72.81 489.20 72.81L489.20 72.81Q493.49 72.81 496.04 71.19Q498.59 69.57 499.71 66.43Q500.84 63.28 500.84 58.71L500.84 58.71L500.84 38.43ZM534.48 77.66L534.48 77.66Q529.28 77.66 525.30 75.52Q521.33 73.37 519.12 68.98Q516.90 64.58 516.90 57.90L516.90 57.90Q516.90 50.91 519.24 46.46Q521.58 42.01 525.69 39.87Q529.80 37.72 535.04 37.72L535.04 37.72Q537.93 37.72 540.62 38.30Q543.30 38.88 545.03 39.76L545.03 39.76L543.27 44.65Q541.51 43.95 539.21 43.38Q536.91 42.82 534.90 42.82L534.90 42.82Q530.89 42.82 528.24 44.54Q525.59 46.27 524.27 49.61Q522.95 52.95 522.95 57.83L522.95 57.83Q522.95 62.51 524.23 65.81Q525.52 69.12 528.06 70.86Q530.61 72.60 534.45 72.60L534.45 72.60Q537.50 72.60 539.96 71.95Q542.43 71.30 544.43 70.42L544.43 70.42L544.43 75.62Q542.50 76.61 540.12 77.13Q537.75 77.66 534.48 77.66ZM567.95 37.79L567.95 37.79Q574.84 37.79 578.18 40.89Q581.52 43.98 581.52 50.77L581.52 50.77L581.52 76.96L577.27 76.96L576.14 71.26L575.86 71.26Q574.24 73.37 572.48 74.79Q570.73 76.22 568.42 76.94Q566.12 77.66 562.78 77.66L562.78 77.66Q559.27 77.66 556.54 76.43Q553.82 75.20 552.25 72.70Q550.69 70.21 550.69 66.38L550.69 66.38Q550.69 60.61 555.26 57.52Q559.83 54.42 569.18 54.14L569.18 54.14L575.82 53.86L575.82 51.50Q575.82 46.51 573.68 44.51Q571.54 42.50 567.63 42.50L567.63 42.50Q564.61 42.50 561.87 43.38Q559.13 44.26 556.66 45.46L556.66 45.46L554.87 41.03Q557.47 39.69 560.85 38.74Q564.22 37.79 567.95 37.79ZM575.75 61.52L575.75 57.97L569.88 58.22Q562.68 58.50 559.72 60.57Q556.77 62.65 556.77 66.45L556.77 66.45Q556.77 69.75 558.77 71.33Q560.78 72.91 564.08 72.91L564.08 72.91Q569.21 72.91 572.48 70.07Q575.75 67.22 575.75 61.52L575.75 61.52ZM605.99 72.88L605.99 72.88Q607.43 72.88 608.94 72.63Q610.45 72.39 611.40 72.04L611.40 72.04L611.40 76.57Q610.38 77.03 608.57 77.34Q606.76 77.66 605.04 77.66L605.04 77.66Q601.98 77.66 599.48 76.59Q596.99 75.52 595.49 72.95Q594 70.38 594 65.85L594 65.85L594 43.00L588.52 43.00L588.52 40.15L594.04 37.86L596.36 29.50L599.87 29.50L599.87 38.43L611.16 38.43L611.16 43.00L599.87 43.00L599.87 65.67Q599.87 69.29 601.54 71.09Q603.21 72.88 605.99 72.88ZM634.04 37.72L634.04 37.72Q638.96 37.72 642.48 39.90Q646.00 42.08 647.86 46.00Q649.72 49.92 649.72 55.16L649.72 55.16L649.72 58.78L623.11 58.78Q623.21 65.57 626.48 69.12Q629.75 72.67 635.70 72.67L635.70 72.67Q639.35 72.67 642.16 72Q644.98 71.33 648 70.03L648 70.03L648 75.16Q645.08 76.46 642.22 77.06Q639.35 77.66 635.45 77.66L635.45 77.66Q629.89 77.66 625.76 75.39Q621.63 73.13 619.35 68.73Q617.06 64.34 617.06 57.97L617.06 57.97Q617.06 51.75 619.15 47.20Q621.25 42.64 625.06 40.18Q628.88 37.72 634.04 37.72ZM633.97 42.50L633.97 42.50Q629.30 42.50 626.52 45.56Q623.74 48.62 623.21 54.11L623.21 54.11L643.61 54.11Q643.57 50.66 642.53 48.04Q641.50 45.42 639.39 43.96Q637.28 42.50 633.97 42.50ZM695.00 30.83L695.00 76.96L688.99 76.96L688.99 30.83L672.82 30.83L672.82 25.56L711.11 25.56L711.11 30.83L695.00 30.83ZM751.22 57.62L751.22 57.62Q751.22 62.37 749.99 66.09Q748.76 69.82 746.44 72.39Q744.12 74.95 740.83 76.31Q737.54 77.66 733.39 77.66L733.39 77.66Q729.53 77.66 726.31 76.31Q723.09 74.95 720.76 72.39Q718.42 69.82 717.13 66.09Q715.85 62.37 715.85 57.62L715.85 57.62Q715.85 51.29 718.00 46.85Q720.14 42.40 724.13 40.06Q728.12 37.72 733.64 37.72L733.64 37.72Q738.91 37.72 742.87 40.08Q746.82 42.43 749.02 46.88Q751.22 51.33 751.22 57.62ZM721.90 57.62L721.90 57.62Q721.90 62.26 723.13 65.67Q724.36 69.08 726.93 70.95Q729.49 72.81 733.54 72.81L733.54 72.81Q737.54 72.81 740.13 70.95Q742.71 69.08 743.94 65.67Q745.17 62.26 745.17 57.62L745.17 57.62Q745.17 53.02 743.94 49.66Q742.71 46.30 740.14 44.47Q737.58 42.64 733.50 42.64L733.50 42.64Q727.49 42.64 724.69 46.62Q721.90 50.59 721.90 57.62ZM772.07 94.25L772.07 94.25Q764.47 94.25 760.36 91.42Q756.25 88.59 756.25 83.50L756.25 83.50Q756.25 79.88 758.55 77.31Q760.85 74.74 764.93 73.90L764.93 73.90Q763.42 73.20 762.35 71.79Q761.27 70.38 761.27 68.55L761.27 68.55Q761.27 66.45 762.45 64.85Q763.63 63.25 766.05 61.77L766.05 61.77Q763.03 60.54 761.15 57.60Q759.27 54.67 759.27 50.77L759.27 50.77Q759.27 46.62 760.99 43.68Q762.71 40.75 765.98 39.20Q769.25 37.65 773.89 37.65L773.89 37.65Q774.91 37.65 775.95 37.74Q776.99 37.83 777.94 37.99Q778.89 38.14 779.59 38.36L779.59 38.36L792.81 38.36L792.81 42.12L785.71 43.00Q786.76 44.37 787.46 46.30Q788.17 48.23 788.17 50.59L788.17 50.59Q788.17 56.36 784.27 59.75Q780.36 63.14 773.54 63.14L773.54 63.14Q771.93 63.14 770.24 62.86L770.24 62.86Q768.52 63.81 767.62 64.97Q766.72 66.13 766.72 67.64L766.72 67.64Q766.72 68.77 767.41 69.43Q768.09 70.10 769.39 70.40Q770.70 70.70 772.52 70.70L772.52 70.70L779.31 70.70Q785.60 70.70 788.96 73.34Q792.32 75.97 792.32 81.04L792.32 81.04Q792.32 87.43 787.11 90.84Q781.91 94.25 772.07 94.25ZM772.24 89.68L772.24 89.68Q777.02 89.68 780.17 88.72Q783.32 87.75 784.88 85.94Q786.45 84.13 786.45 81.63L786.45 81.63Q786.45 79.31 785.39 78.13Q784.34 76.96 782.30 76.55Q780.26 76.15 777.30 76.15L777.30 76.15L770.63 76.15Q768.02 76.15 766.09 76.96Q764.16 77.77 763.12 79.35Q762.08 80.93 762.08 83.29L762.08 83.29Q762.08 86.41 764.72 88.05Q767.36 89.68 772.24 89.68ZM773.75 58.89L773.75 58.89Q777.94 58.89 780.05 56.78Q782.16 54.67 782.16 50.63L782.16 50.63Q782.16 46.30 780.01 44.14Q777.87 41.98 773.68 41.98L773.68 41.98Q769.68 41.98 767.51 44.21Q765.35 46.44 765.35 50.73L765.35 50.73Q765.35 54.67 767.53 56.78Q769.71 58.89 773.75 58.89ZM815.24 37.72L815.24 37.72Q820.16 37.72 823.68 39.90Q827.19 42.08 829.05 46.00Q830.92 49.92 830.92 55.16L830.92 55.16L830.92 58.78L804.30 58.78Q804.41 65.57 807.68 69.12Q810.95 72.67 816.89 72.67L816.89 72.67Q820.55 72.67 823.36 72Q826.17 71.33 829.20 70.03L829.20 70.03L829.20 75.16Q826.28 76.46 823.41 77.06Q820.55 77.66 816.64 77.66L816.64 77.66Q811.09 77.66 806.96 75.39Q802.83 73.13 800.54 68.73Q798.26 64.34 798.26 57.97L798.26 57.97Q798.26 51.75 800.35 47.20Q802.44 42.64 806.26 40.18Q810.07 37.72 815.24 37.72ZM815.17 42.50L815.17 42.50Q810.49 42.50 807.71 45.56Q804.94 48.62 804.41 54.11L804.41 54.11L824.80 54.11Q824.77 50.66 823.73 48.04Q822.69 45.42 820.58 43.96Q818.47 42.50 815.17 42.50ZM853.28 72.88L853.28 72.88Q854.72 72.88 856.23 72.63Q857.74 72.39 858.69 72.04L858.69 72.04L858.69 76.57Q857.67 77.03 855.86 77.34Q854.05 77.66 852.33 77.66L852.33 77.66Q849.27 77.66 846.77 76.59Q844.28 75.52 842.78 72.95Q841.29 70.38 841.29 65.85L841.29 65.85L841.29 43.00L835.80 43.00L835.80 40.15L841.32 37.86L843.64 29.50L847.16 29.50L847.16 38.43L858.45 38.43L858.45 43.00L847.16 43.00L847.16 65.67Q847.16 69.29 848.83 71.09Q850.50 72.88 853.28 72.88ZM866.50 22.25L872.33 22.25L872.33 38.60Q872.33 40.01 872.26 41.43Q872.19 42.86 872.02 44.05L872.02 44.05L872.40 44.05Q873.60 42.01 875.44 40.62Q877.29 39.23 879.64 38.51Q882 37.79 884.64 37.79L884.64 37.79Q889.28 37.79 892.39 39.27Q895.50 40.75 897.06 43.84Q898.63 46.93 898.63 51.86L898.63 51.86L898.63 76.96L892.86 76.96L892.86 52.24Q892.86 47.43 890.67 45.04Q888.47 42.64 883.93 42.64L883.93 42.64Q879.64 42.64 877.10 44.28Q874.55 45.91 873.44 49.08Q872.33 52.24 872.33 56.81L872.33 56.81L872.33 76.96L866.50 76.96L866.50 22.25ZM925.49 37.72L925.49 37.72Q930.41 37.72 933.93 39.90Q937.44 42.08 939.30 46.00Q941.17 49.92 941.17 55.16L941.17 55.16L941.17 58.78L914.55 58.78Q914.66 65.57 917.93 69.12Q921.20 72.67 927.14 72.67L927.14 72.67Q930.80 72.67 933.61 72Q936.42 71.33 939.45 70.03L939.45 70.03L939.45 75.16Q936.53 76.46 933.66 77.06Q930.80 77.66 926.89 77.66L926.89 77.66Q921.34 77.66 917.21 75.39Q913.08 73.13 910.79 68.73Q908.51 64.34 908.51 57.97L908.51 57.97Q908.51 51.75 910.60 47.20Q912.69 42.64 916.51 40.18Q920.32 37.72 925.49 37.72ZM925.42 42.50L925.42 42.50Q920.74 42.50 917.96 45.56Q915.19 48.62 914.66 54.11L914.66 54.11L935.05 54.11Q935.02 50.66 933.98 48.04Q932.94 45.42 930.83 43.96Q928.72 42.50 925.42 42.50ZM968.59 37.72L968.59 37.72Q969.75 37.72 971.02 37.85Q972.28 37.97 973.27 38.18L973.27 38.18L972.53 43.59Q971.58 43.35 970.42 43.21Q969.26 43.07 968.24 43.07L968.24 43.07Q965.92 43.07 963.86 44.00Q961.80 44.93 960.26 46.67Q958.71 48.41 957.83 50.85Q956.95 53.30 956.95 56.29L956.95 56.29L956.95 76.96L951.08 76.96L951.08 38.43L955.93 38.43L956.57 45.53L956.81 45.53Q958.01 43.38 959.70 41.61Q961.38 39.83 963.62 38.78Q965.85 37.72 968.59 37.72Z"/></svg>
